<?xml version="1.0" standalone="yes"?>

<svg version="1.1" viewBox="0.0 0.0 16.0 16.0" fill="none" stroke="none" stroke-linecap="square" stroke-miterlimit="10" xmlns="http://www.w3.org/2000/svg" xmlns:xlink="http://www.w3.org/1999/xlink"><clipPath id="p.0"><path d="m0 0l16.0 0l0 16.0l-16.0 0l0 -16.0z" clip-rule="nonzero"></path></clipPath><g clip-path="url(#p.0)"><path fill="#000000" fill-opacity="0.0" d="m0 0l16.0 0l0 16.0l-16.0 0z" fill-rule="nonzero"></path><path fill="#2973a8" d="m0.10279106 8.000005l0 0c0 -4.358409 3.5359228 -7.8915973 7.897705 -7.8915973l0 0c2.0946016 0 4.1034136 0.83143383 5.5845203 2.3113956c1.4811068 1.4799616 2.3131838 3.4872205 2.3131838 5.580202l0 0c0 4.35841 -3.535922 7.8915977 -7.897704 7.8915977l0 0c-4.361782 0 -7.897705 -3.5331879 -7.897705 -7.8915977z" fill-rule="nonzero"></path><path fill="#333841" d="m0.49465847 8.000217l0 0c0 -4.1416454 3.3606012 -7.499112 7.506113 -7.499112l0 0c1.9907446 0 3.8999538 0.7900828 5.307623 2.196439c1.4076691 1.4063563 2.1984892 3.3137846 2.1984892 5.3026733l0 0c0 4.1416445 -3.3606014 7.499111 -7.506112 7.499111l0 0c-4.1455116 0 -7.506113 -3.3574667 -7.506113 -7.499111z" fill-rule="nonzero"></path><path fill="#43c3b1" d="m2.020822 8.000287l0 0c0 -3.3000846 2.6773176 -5.9753313 5.979956 -5.9753313l0 0c1.5859823 0 3.107008 0.6295419 4.228467 1.750134c1.121459 1.1205924 1.7514887 2.6404412 1.7514887 4.225198l0 0c0 3.300085 -2.6773176 5.9753323 -5.9799557 5.9753323l0 0c-3.3026385 0 -5.979956 -2.6752472 -5.979956 -5.9753323z" fill-rule="nonzero"></path><path fill="#333841" d="m2.3396888 8.000219l0 0c0 -3.1247826 2.534556 -5.657919 5.6610894 -5.657919l0 0c1.5014143 0 2.9413347 0.59610033 4.0029945 1.657166c1.0616598 1.0610657 1.6580944 2.5001793 1.6580944 4.000753l0 0c0 3.1247816 -2.5345554 5.657919 -5.661089 5.657919l0 0c-3.1265335 0 -5.6610894 -2.5331373 -5.6610894 -5.657919z" fill-rule="nonzero"></path><path fill="#c36159" d="m3.1445053 5.1122184l4.261256 8.528095l1.1615963 0l4.298527 -8.528095l-0.8634329 0l-3.994151 7.9943137l-3.994151 -7.9943137z" fill-rule="evenodd"></path></g></svg>

